<mxfile host="app.diagrams.net" modified="2023-07-04T14:31:42.976Z" agent="Mozilla/5.0 (Macintosh; Intel Mac OS X 10_15_7) AppleWebKit/537.36 (KHTML, like Gecko) Chrome/114.0.0.0 Safari/537.36" version="21.5.2" etag="ckGuaOg82R96F-VHR4k2" type="github">
  <diagram name="페이지-1" id="1mOp099-Uu1_yhPHiOi-">
    <mxGraphModel>
      <root>
        <mxCell id="0" />
        <mxCell id="1" parent="0" />
      </root>
    </mxGraphModel>
  </diagram>
</mxfile>
